<svg xmlns="http://www.w3.org/2000/svg" width="1200" height="630" viewBox="0 0 1200 630" role="img" aria-label="Saúde da Mente">
  <defs>
    <linearGradient id="bg" x1="0" y1="1" x2="1" y2="0">
      <stop offset="0%" stop-color="#EEF4FA"/>
      <stop offset="100%" stop-color="#F8F6F1"/>
    </linearGradient>
  </defs>
  <rect width="1200" height="630" fill="url(#bg)"/>
  <circle cx="200" cy="140" r="160" fill="#6FA8DC" opacity="0.16"/>
  <circle cx="1000" cy="480" r="200" fill="#0A2540" opacity="0.08"/>
  <g transform="translate(500 180)" fill="none" stroke="#0A2540" stroke-width="4">
    <path d="M100 40c40 0 70 30 70 70 0 55-70 100-70 100S30 165 30 110c0-40 30-70 70-70z"/>
    <path d="M55 95c15-20 40-20 55 0" stroke="#C9A96E"/>
    <path d="M70 125c10 12 30 12 40 0" stroke="#C9A96E"/>
  </g>
  <text x="600" y="420" text-anchor="middle" font-family="Georgia, serif" font-size="42" fill="#0A2540">Saúde da Mente</text>
  <text x="600" y="470" text-anchor="middle" font-family="Arial, sans-serif" font-size="20" fill="#5A6577">EQUILÍBRIO INTEGRAL</text>
</svg>
